<svg xmlns="http://www.w3.org/2000/svg" width="860" height="320" viewBox="0 0 860 320" role="img" aria-label="信用卡中心 Coze 练习场景地图">
<rect width="860" height="320" rx="8" fill="#f8f6f0"/>
<text x="30" y="46" font-family="Microsoft YaHei,Arial" font-size="24" font-weight="800" fill="#1f2f35">Credit Card Coze Lab</text>
<text x="30" y="72" font-family="Microsoft YaHei,Arial" font-size="13" fill="#66736f">10 common scenes for bank credit card center practice</text>
<rect x="30" y="92" width="242" height="24" rx="6" fill="#1d6f64"/><text x="44" y="109" font-family="Microsoft YaHei,Arial" font-size="13" font-weight="700" fill="#fff">进件与获客 · 1</text><rect x="30" y="128" width="242" height="24" rx="6" fill="#c75f3d"/><text x="44" y="145" font-family="Microsoft YaHei,Arial" font-size="13" font-weight="700" fill="#fff">客户经营 · 1</text><rect x="30" y="164" width="314" height="24" rx="6" fill="#875f13"/><text x="44" y="181" font-family="Microsoft YaHei,Arial" font-size="13" font-weight="700" fill="#fff">营销与合规 · 2</text><rect x="30" y="200" width="314" height="24" rx="6" fill="#315f88"/><text x="44" y="217" font-family="Microsoft YaHei,Arial" font-size="13" font-weight="700" fill="#fff">客服与投诉 · 2</text><rect x="30" y="236" width="314" height="24" rx="6" fill="#7a4b67"/><text x="44" y="253" font-family="Microsoft YaHei,Arial" font-size="13" font-weight="700" fill="#fff">贷后与风险 · 2</text><rect x="30" y="272" width="242" height="24" rx="6" fill="#4f6f42"/><text x="44" y="289" font-family="Microsoft YaHei,Arial" font-size="13" font-weight="700" fill="#fff">分期与账单 · 1</text><rect x="30" y="308" width="242" height="24" rx="6" fill="#1d6f64"/><text x="44" y="325" font-family="Microsoft YaHei,Arial" font-size="13" font-weight="700" fill="#fff">数据与经营分析 · 1</text>
<circle cx="650" cy="98" r="11" fill="#1d6f64"/><text x="650" y="102" text-anchor="middle" font-family="Arial" font-size="10" font-weight="700" fill="#fff">1</text><circle cx="684" cy="98" r="11" fill="#c75f3d"/><text x="684" y="102" text-anchor="middle" font-family="Arial" font-size="10" font-weight="700" fill="#fff">2</text><circle cx="718" cy="98" r="11" fill="#875f13"/><text x="718" y="102" text-anchor="middle" font-family="Arial" font-size="10" font-weight="700" fill="#fff">3</text><circle cx="752" cy="98" r="11" fill="#315f88"/><text x="752" y="102" text-anchor="middle" font-family="Arial" font-size="10" font-weight="700" fill="#fff">4</text><circle cx="786" cy="98" r="11" fill="#7a4b67"/><text x="786" y="102" text-anchor="middle" font-family="Arial" font-size="10" font-weight="700" fill="#fff">5</text><circle cx="650" cy="146" r="11" fill="#4f6f42"/><text x="650" y="150" text-anchor="middle" font-family="Arial" font-size="10" font-weight="700" fill="#fff">6</text><circle cx="684" cy="146" r="11" fill="#1d6f64"/><text x="684" y="150" text-anchor="middle" font-family="Arial" font-size="10" font-weight="700" fill="#fff">7</text><circle cx="718" cy="146" r="11" fill="#c75f3d"/><text x="718" y="150" text-anchor="middle" font-family="Arial" font-size="10" font-weight="700" fill="#fff">8</text><circle cx="752" cy="146" r="11" fill="#875f13"/><text x="752" y="150" text-anchor="middle" font-family="Arial" font-size="10" font-weight="700" fill="#fff">9</text><circle cx="786" cy="146" r="11" fill="#315f88"/><text x="786" y="150" text-anchor="middle" font-family="Arial" font-size="10" font-weight="700" fill="#fff">10</text>
<path d="M620 245h180" stroke="#d9d1c2" stroke-width="2"/>
<text x="620" y="274" font-family="Microsoft YaHei,Arial" font-size="13" fill="#66736f">copy prompts · build agents · test workflows</text>
</svg>